<svg width="630" height="578" viewBox="0 0 630 578" fill="none" xmlns="http://www.w3.org/2000/svg">
<path d="M479.995 209.801C565.05 223.551 630.001 297.314 630.001 386.25C630.001 442.596 603.928 492.851 563.191 525.614C567.91 543.894 574.265 554.651 584.519 566.501C585.904 568.056 592.123 574.429 591.184 576.306C590.205 578.18 577.041 576.655 574.93 576.502L574.896 576.565C543.856 574.316 533.831 566.892 518.476 551.924C497.723 560.354 475.029 565 451.25 565C380.56 565 319.457 523.965 290.455 464.417C399.994 432.363 480.001 331.15 480.001 211.25C480.001 210.767 479.998 210.284 479.995 209.801Z" fill="#B1D3D2" />
<path d="M439.67 207.87C439.888 211.886 440.001 215.93 440.001 220C440.001 321.265 371.583 406.548 278.451 432.15C274.571 417.503 272.5 402.118 272.5 386.25C272.5 291.42 346.346 213.837 439.67 207.87Z" fill="#77909C" />
<path d="M220 0C323.728 7.82498e-05 410.687 71.7868 433.911 168.389C322.395 178.414 235 272.126 235 386.251C235 404.428 237.218 422.086 241.396 438.972C234.356 439.651 227.219 440.001 220 440.001C184.958 440.001 151.83 431.808 122.427 417.233C94.3453 437.753 77.5879 447.43 28.2158 443.853L28.1787 443.748C24.8945 443.51 4.29503 442.907 3.20605 439.804C2.18199 436.705 13.1825 428.29 15.6621 426.206C34.0365 410.325 46.2114 395.245 57.5391 368.348C21.7999 329.23 0 277.161 0 220C0.000173181 98.4974 98.4974 0.000164975 220 0Z" fill="#3D4D66" />
<path d="M141.869 211.604C141.869 230.196 126.797 245.268 108.205 245.268C89.613 245.268 74.541 230.196 74.541 211.604C74.541 193.011 89.613 177.939 108.205 177.939C126.797 177.939 141.869 193.011 141.869 211.604Z" fill="#FAFAFA" />
<path d="M252.48 211.604C252.48 230.196 237.408 245.268 218.816 245.268C200.223 245.268 185.151 230.196 185.151 211.604C185.151 193.011 200.223 177.939 218.816 177.939C237.408 177.939 252.48 193.011 252.48 211.604Z" fill="#FAFAFA" />
</svg>
