<svg width="150" height="135" viewBox="0 0 150 135" fill="none" xmlns="http://www.w3.org/2000/svg">
<path d="M6.9105 119V127H3.0705V105.24H10.3345C12.5318 105.24 14.2172 105.805 15.3905 106.936C16.5852 108.045 17.1825 109.539 17.1825 111.416V112.792C17.1825 114.029 16.9158 115.117 16.3825 116.056C15.8492 116.995 15.0812 117.709 14.0785 118.2C15.8278 121.187 17.3212 124.12 18.5585 127H14.1745C13.1078 124.333 11.8385 121.667 10.3665 119H6.9105ZM10.3345 108.76H6.9105V115.48H10.3345C11.2732 115.48 11.9878 115.245 12.4785 114.776C12.9905 114.285 13.2465 113.624 13.2465 112.792V111.416C13.2465 110.605 12.9905 109.965 12.4785 109.496C11.9878 109.005 11.2732 108.76 10.3345 108.76ZM35.3785 127.16C34.2905 127.16 33.4158 126.936 32.7545 126.488C32.1145 126.04 31.6452 125.485 31.3465 124.824C30.4292 125.677 29.5438 126.307 28.6905 126.712C27.8372 127.117 26.9198 127.32 25.9385 127.32C24.5092 127.32 23.4532 126.861 22.7705 125.944C22.1092 125.027 21.7785 123.864 21.7785 122.456C21.7785 121.517 21.9492 120.696 22.2905 119.992C22.6532 119.267 23.2398 118.701 24.0505 118.296C24.8612 117.891 25.9705 117.688 27.3785 117.688C27.9332 117.688 28.5092 117.731 29.1065 117.816C29.7038 117.88 30.3012 117.965 30.8985 118.072V116.184C30.8985 115.288 30.6532 114.68 30.1625 114.36C29.6718 114.019 29.0105 113.848 28.1785 113.848C27.5385 113.848 26.8345 113.933 26.0665 114.104C25.3198 114.275 24.5092 114.541 23.6345 114.904L22.5785 111.768C24.7332 110.893 26.6852 110.456 28.4345 110.456C30.0132 110.456 31.2292 110.723 32.0825 111.256C32.9572 111.789 33.5652 112.493 33.9065 113.368C34.2478 114.243 34.4185 115.181 34.4185 116.184V122.424C34.4185 122.744 34.5038 123.053 34.6745 123.352C34.8665 123.629 35.2292 123.768 35.7625 123.768H36.1145V127.16H35.3785ZM25.3305 122.392C25.3305 122.968 25.4585 123.427 25.7145 123.768C25.9705 124.088 26.3438 124.248 26.8345 124.248C27.3252 124.248 27.8798 124.12 28.4985 123.864C29.1172 123.608 29.9172 123.011 30.8985 122.072V120.696C29.7892 120.504 28.7012 120.408 27.6345 120.408C26.8025 120.408 26.2052 120.579 25.8425 120.92C25.5012 121.261 25.3305 121.752 25.3305 122.392ZM48.2453 113.88C47.7119 113.88 47.1039 114.008 46.4213 114.264C45.7386 114.52 44.9279 115.021 43.9893 115.768V127H40.3093V110.776H43.7973V112.952C44.7999 112.077 45.7493 111.448 46.6453 111.064C47.5413 110.659 48.4479 110.456 49.3653 110.456C50.9226 110.456 52.1066 110.957 52.9173 111.96C53.7279 112.941 54.1333 114.328 54.1333 116.12V127H50.4533V116.568C50.4533 114.776 49.7173 113.88 48.2453 113.88ZM69.5008 127V124.792C68.5194 125.773 67.6661 126.445 66.9408 126.808C66.2368 127.149 65.5008 127.32 64.7328 127.32C62.9834 127.32 61.6181 126.659 60.6368 125.336C59.6768 124.013 59.1968 122.157 59.1968 119.768V118.04C59.1968 115.715 59.7834 113.869 60.9568 112.504C62.1301 111.139 63.8261 110.456 66.0448 110.456C66.5994 110.456 67.1434 110.509 67.6768 110.616C68.2314 110.723 68.7754 110.872 69.3088 111.064V103.32H72.9888V127H69.5008ZM62.9728 119.768C62.9728 121.197 63.2074 122.243 63.6768 122.904C64.1674 123.565 64.8501 123.896 65.7248 123.896C66.2154 123.896 66.7381 123.757 67.2928 123.48C67.8474 123.181 68.5194 122.627 69.3088 121.816V114.392C68.2634 113.965 67.3034 113.752 66.4288 113.752C65.1914 113.752 64.3061 114.136 63.7728 114.904C63.2394 115.672 62.9728 116.717 62.9728 118.04V119.768ZM92.3393 117.912V119.832C92.3393 122.093 91.7206 123.907 90.4833 125.272C89.2459 126.637 87.4966 127.32 85.2353 127.32C82.9739 127.32 81.2246 126.637 79.9873 125.272C78.7499 123.907 78.1313 122.093 78.1313 119.832V117.912C78.1313 115.651 78.7393 113.848 79.9553 112.504C81.1926 111.139 82.9526 110.456 85.2353 110.456C87.5179 110.456 89.2673 111.139 90.4833 112.504C91.7206 113.848 92.3393 115.651 92.3393 117.912ZM88.5633 117.912C88.5633 116.611 88.2753 115.597 87.6993 114.872C87.1233 114.125 86.3019 113.752 85.2353 113.752C84.1686 113.752 83.3473 114.125 82.7713 114.872C82.1953 115.597 81.9073 116.611 81.9073 117.912V119.832C81.9073 121.133 82.1953 122.157 82.7713 122.904C83.3473 123.651 84.1686 124.024 85.2353 124.024C86.3019 124.024 87.1233 123.651 87.6993 122.904C88.2753 122.157 88.5633 121.133 88.5633 119.832V117.912ZM101.146 115.768V127H97.4655V110.776H100.954V112.92C101.956 112.045 102.884 111.416 103.738 111.032C104.591 110.648 105.466 110.456 106.362 110.456C108.346 110.456 109.7 111.331 110.426 113.08C111.492 112.141 112.484 111.469 113.402 111.064C114.319 110.659 115.247 110.456 116.186 110.456C117.679 110.456 118.82 110.957 119.61 111.96C120.399 112.941 120.794 114.328 120.794 116.12V127H117.114V116.568C117.114 114.776 116.431 113.88 115.066 113.88C114.532 113.88 113.946 114.008 113.306 114.264C112.666 114.52 111.887 115.021 110.97 115.768V127H107.29V116.568C107.29 114.776 106.607 113.88 105.242 113.88C104.708 113.88 104.122 114.008 103.482 114.264C102.842 114.52 102.063 115.021 101.146 115.768ZM126.557 122.424V103.32H130.237V122.424C130.237 122.744 130.312 123.053 130.461 123.352C130.632 123.629 130.952 123.768 131.421 123.768H131.933V127.16H131.037C129.821 127.16 128.893 126.925 128.253 126.456C127.613 125.987 127.165 125.389 126.909 124.664C126.674 123.939 126.557 123.192 126.557 122.424ZM143.057 128.6C142.353 130.563 141.457 131.971 140.369 132.824C139.281 133.699 137.787 134.136 135.889 134.136V130.456C137.019 130.413 137.905 130.157 138.545 129.688C139.206 129.24 139.697 128.611 140.017 127.8L140.305 127.064L134.513 110.776H138.161L140.945 118.872L142.033 122.296L143.089 118.872L145.745 110.776H149.393L143.057 128.6Z" fill="#EEEEEE" style="fill:#EEEEEE;fill:color(display-p3 0.9327 0.9327 0.9327);fill-opacity:1;"/>
<path d="M93.3306 23.3123C102.782 24.839 110 33.0342 110 42.9167C110 49.177 107.103 54.7588 102.577 58.3992C103.101 60.4315 103.807 61.6272 104.947 62.9441C105.1 63.1168 105.792 63.825 105.688 64.0339C105.579 64.2421 104.116 64.0724 103.881 64.0554L103.878 64.0632C100.429 63.8132 99.3146 62.9877 97.6079 61.324C95.3021 62.2605 92.7812 62.7781 90.1392 62.7781C82.284 62.778 75.4949 58.2169 72.2729 51.5994C84.4436 48.0377 93.3334 36.7945 93.3335 23.4724C93.3335 23.419 93.3309 23.3656 93.3306 23.3123Z" fill="#BFD1E5" style="fill:#BFD1E5;fill:color(display-p3 0.7490 0.8196 0.8980);fill-opacity:1;"/>
<path d="M88.8516 23.0981C88.8758 23.5439 88.8896 23.9931 88.8896 24.4448C88.8895 35.696 81.287 45.1694 70.9395 48.0142C70.5087 46.3874 70.2783 44.6787 70.2783 42.9165C70.2785 32.3804 78.483 23.7619 88.8516 23.0981Z" fill="#6A8D73" style="fill:#6A8D73;fill:color(display-p3 0.4157 0.5529 0.4510);fill-opacity:1;"/>
<path d="M64.4443 0C75.9697 9.1111e-05 85.6297 7.97721 88.21 18.7109C75.8207 19.8262 66.1113 30.2374 66.1113 42.917C66.1114 44.9358 66.3583 46.897 66.8223 48.7725C66.0399 48.848 65.2465 48.8887 64.4443 48.8887C60.5511 48.8886 56.8714 47.9766 53.6045 46.3574C50.4834 48.6381 48.6223 49.7149 43.1357 49.3174L43.1309 49.3057C42.7645 49.2792 40.4775 49.2118 40.3564 48.8672C40.2427 48.523 41.464 47.5885 41.7402 47.3564C43.7823 45.5915 45.1337 43.9146 46.3926 40.9248C42.4226 36.5787 40 30.7946 40 24.4443C40.0001 10.9442 50.9443 0.000230914 64.4443 0Z" fill="#233D4D" style="fill:#233D4D;fill:color(display-p3 0.1373 0.2392 0.3020);fill-opacity:1;"/>
<ellipse cx="52.0232" cy="23.5115" rx="3.74045" ry="3.74046" fill="#EEEEEE" style="fill:#EEEEEE;fill:color(display-p3 0.9327 0.9327 0.9327);fill-opacity:1;"/>
<ellipse cx="64.3132" cy="23.5115" rx="3.74045" ry="3.74046" fill="#EEEEEE" style="fill:#EEEEEE;fill:color(display-p3 0.9327 0.9327 0.9327);fill-opacity:1;"/>
</svg>
