<svg xmlns="http://www.w3.org/2000/svg" fill="none" viewBox="0 0 166 127">
    <path fill="#242627"
        d="M155 0c6.075 0 11 4.925 11 11v105c0 6.075-4.925 11-11 11h-51v-10.555c0-5.273-4.17-9.51-9.267-9.51h-5.535l-1.039-5.623 1.553.445c4.285 1.229 7.523.535 9.677-.431a11.5 11.5 0 0 0 2.447-1.478q.189-.153.333-.28c-1.246-3.025-2.57-8.053-2.57-16.54v-9.01C99.6 64.596 92.146 57 83.002 57h-.002c-4.577 0-8.723 1.897-11.73 4.976S66.4 69.309 66.4 74.018v9.01c0 8.487-1.324 13.515-2.57 16.54q.146.128.338.283c.546.434 1.37.996 2.459 1.483 2.164.966 5.418 1.657 9.725.405l1.523-.442-.926 5.638h-5.682c-5.096 0-9.267 4.237-9.267 9.51V127H11c-6.075 0-11-4.925-11-11V11C0 4.925 4.925 0 11 0z"/>
    <path fill="#6a8d73"
        d="M155 0c6.075 0 11 4.925 11 11v105c0 6.075-4.925 11-11 11h-51v-10.555c0-5.273-4.17-9.51-9.267-9.51h-5.535l-1.039-5.623 1.553.445c4.285 1.229 7.523.535 9.677-.431a11.5 11.5 0 0 0 2.447-1.478q.189-.153.333-.28c-1.246-3.025-2.57-8.053-2.57-16.54v-9.01C99.6 64.596 92.146 57 83.002 57h-.002c-4.577 0-8.723 1.897-11.73 4.976S66.4 69.309 66.4 74.018v9.01c0 8.487-1.324 13.515-2.57 16.54q.146.128.338.283c.546.434 1.37.996 2.459 1.483 2.164.966 5.418 1.657 9.725.405l1.523-.442-.926 5.638h-5.682c-5.096 0-9.267 4.237-9.267 9.51V127H11c-6.075 0-11-4.925-11-11V11C0 4.925 4.925 0 11 0zM11 2a9 9 0 0 0-9 9v105a9 9 0 0 0 9 9h49v-8.555c0-6.335 5.024-11.51 11.267-11.51h3.984l.146-.899c-4.08.851-7.305.143-9.586-.876a13.5 13.5 0 0 1-2.89-1.745 11 11 0 0 1-.41-.343l-1.075-.943.544-1.322c1.06-2.572 2.26-6.918 2.406-14.268l.014-1.51v-9.011c0-5.245 2.077-9.997 5.439-13.44l.32-.32C73.492 57.005 78.015 55 82.998 55h.002c10.292 0 18.599 8.535 18.599 19.018v9.01l.014 1.511c.146 7.35 1.345 11.696 2.405 14.268l.543 1.322-1.075.943c-.111.098-.247.214-.404.339a13.5 13.5 0 0 1-2.876 1.74c-2.262 1.015-5.46 1.727-9.507.905l.162.879h3.871c6.244 0 11.267 5.175 11.267 11.51V125h49a9 9 0 0 0 9-9V11a9 9 0 0 0-9-9z" />
</svg>