<svg xmlns="http://www.w3.org/2000/svg" fill="none" viewBox="0 0 166 127">
  <path fill="#242627" fill-rule="evenodd" d="M155 0c6.075 0 11 4.92487 11 11v105c0 6.075-4.925 11-11 11h-48v-7.795c0-6.971-5.503-12.579-12.2354-12.579h-5.7724l-1.2246-6.7832.6621-.3379c3.7338-1.9048 6.3952-5.7178 6.7627-10.209.094-1.16.9796-1.9308 1.9033-2.1777 1.4547-.3886 2.5506-1.7535 2.5508-3.4131 0-.9128-.3308-1.7358-.8711-2.3555l-.4316-.4951.2822-.5918c.8931-1.8767 1.737-4.815 1.737-9.2207 0-1.0748-.106-2.0546-.264-2.9121-.5436-2.8092-3.0066-4.7832-5.7992-4.7832h-.7266l-.2226-.6836c-.0052-.0126-.0147-.0346-.0293-.0645-.036-.0736-.1028-.1971-.2139-.3545-.221-.3131-.6233-.7712-1.3193-1.2451l-.0039-.0019C90.4106 60.0547 87.7987 59 82.999 59c-4.7988 0-7.4118 1.0544-8.7929 1.999-.692.4734-1.0929.9308-1.3135 1.2442-.111.1576-.1779.2816-.2139.3554-.0146.03-.024.0518-.0293.0645l-.2226.6846h-.7266c-1.3983 0-2.704.4943-3.749 1.3418l-.001-.001c-1.0292.8456-1.7835 2.0333-2.0479 3.4375-.159.8585-.2656 1.8394-.2656 2.916.0001 4.0756.8938 6.9982 1.9053 9.0068l.3213.6387-.501.5107c-.6206.6334-1.0088 1.5182-1.0088 2.5069.0001 1.6596 1.0961 3.0245 2.5508 3.4131.9237.2469 1.8093 1.0177 1.9033 2.1777.3661 4.491 3.029 8.3056 6.7627 10.209l.6846.3486-1.4492 6.7725h-5.5703C64.5026 106.626 59 112.234 59 119.205V127H11c-6.07513 0-11-4.925-11-11V11C0 4.92487 4.92487 0 11 0h144Z" clip-rule="evenodd" />
  <path fill="#6A8D73" d="M155 0c6.075 0 11 4.92487 11 11v105c0 6.075-4.925 11-11 11h-48v-7.795c0-6.971-5.503-12.579-12.2354-12.579h-5.7724l-1.2246-6.7832.6621-.3379c3.7338-1.9048 6.3952-5.7178 6.7627-10.209.094-1.16.9796-1.9308 1.9033-2.1777 1.4547-.3886 2.5506-1.7535 2.5508-3.4131 0-.9128-.3308-1.7358-.8711-2.3555l-.4316-.4951.2822-.5918c.8931-1.8767 1.737-4.815 1.737-9.2207 0-1.0748-.106-2.0546-.264-2.9121-.5436-2.8092-3.0066-4.7832-5.7992-4.7832h-.7266l-.2226-.6836c-.0052-.0126-.0147-.0346-.0293-.0645-.036-.0736-.1028-.1971-.2139-.3545-.221-.3131-.6233-.7712-1.3193-1.2451l-.0039-.0019C90.4106 60.0547 87.7987 59 82.999 59c-4.7988 0-7.4118 1.0544-8.7929 1.999-.692.4734-1.0929.9308-1.3135 1.2442-.111.1576-.1779.2816-.2139.3554-.0146.03-.024.0518-.0293.0645l-.2226.6846h-.7266c-1.3983 0-2.704.4943-3.749 1.3418l-.001-.001c-1.0292.8456-1.7835 2.0333-2.0479 3.4375-.159.8585-.2656 1.8394-.2656 2.916.0001 4.0756.8938 6.9982 1.9053 9.0068l.3213.6387-.501.5107c-.6206.6334-1.0088 1.5182-1.0088 2.5069.0001 1.6596 1.0961 3.0245 2.5508 3.4131.9237.2469 1.8093 1.0177 1.9033 2.1777.3661 4.491 3.029 8.3056 6.7627 10.209l.6846.3486-1.4492 6.7725h-5.5703C64.5026 106.626 59 112.234 59 119.205V127H11c-6.07513 0-11-4.925-11-11V11C0 4.92487 4.92487 0 11 0h144ZM11 2c-4.97056 0-9 4.02944-9 9v105c0 4.971 4.02944 9 9 9h46v-5.795c0-8.028 6.3512-14.579 14.2354-14.579h3.9521l.7939-3.712c-3.9857-2.3169-6.7666-6.5445-7.1669-11.456-.0072-.0869-.0373-.1517-.1006-.2187-.0774-.0818-.1978-.1542-.3262-.1885-2.3392-.6251-4.034-2.7905-4.0342-5.3457 0-1.2617.4129-2.4295 1.1133-3.3623-1.0223-2.2466-1.83-5.2926-1.8301-9.3008 0-1.2083.1193-2.3114.2988-3.2803l.001-.0058c.3565-1.8933 1.3748-3.4873 2.7442-4.6123l1.4013-1.1514.1573.1572c.8731-.426 1.8294-.6954 2.833-.7754.0533-.0875.1142-.1822.1845-.2822.3534-.502.9245-1.1304 1.8203-1.7432C74.8738 58.1198 77.911 57 82.999 57c4.9627 0 7.9742 1.0663 9.7813 2.2588l.0224.0117.1114.0752c.9008.6134 1.4729 1.2433 1.8271 1.7451.0702.0995.1303.194.1836.2813 3.3581.2662 6.2522 2.6585 7.0612 6.0283l.076.3496.001.0078.002.0078c.18.9682.298 2.0704.298 3.2764l-.01.8584c-.094 3.8364-.808 6.645-1.668 8.6572.608.8948.961 1.9807.961 3.1475l-.004.2383c-.102 2.4506-1.7634 4.5018-4.0297 5.1074-.1284.0343-.2489.1067-.3262.1885-.0633.067-.0934.1308-.1006.2177v.002c-.4026 4.9209-3.1925 9.1528-7.1904 11.468l.668 3.699h4.1015c7.8844 0 14.2354 6.551 14.2354 14.579V125h46c4.971 0 9-4.029 9-9V11c0-4.97056-4.029-9-9-9H11Z" />
</svg>
