<svg xmlns="http://www.w3.org/2000/svg" fill="none" viewBox="0 0 166 127">
  <path fill="#242627" fill-rule="evenodd" d="M155 0c6.075 0 11 4.92487 11 11v105c0 6.075-4.925 11-11 11h-51v-10.555c0-5.273-4.1706-9.51-9.2666-9.51h-5.5352l-1.039-5.623 1.5527.445c4.2847 1.229 7.5234.535 9.6768-.431 1.0843-.486 1.9043-1.045 2.4473-1.4783.126-.1008.237-.1953.333-.2793-1.246-3.0251-2.5693-8.0537-2.5694-16.5401v-9.0107c0-9.4213-7.4545-17.0174-16.5986-17.0176h-.002c-4.5771 0-8.7226 1.8971-11.7295 4.9756-3.0072 3.079-4.8691 7.3338-4.8691 12.042v9.0107c-.0001 8.4867-1.3243 13.515-2.5703 16.5401.0969.085.2096.18.3379.2822.5459.4344 1.3693.9964 2.459 1.4834 2.1637.966 5.4183 1.657 9.7246.405l1.5234-.442-.9258 5.638h-5.6826c-5.0957 0-9.2666 4.237-9.2666 9.51V127H11c-6.07513 0-11-4.925-11-11V11C0 4.92487 4.92487 0 11 0h144Z" clip-rule="evenodd" />
  <path fill="#6A8D73" d="M155 0c6.075 0 11 4.92487 11 11v105c0 6.075-4.925 11-11 11h-51v-10.555c0-5.273-4.1706-9.51-9.2666-9.51h-5.5352l-1.039-5.623 1.5527.445c4.2847 1.229 7.5234.535 9.6768-.431 1.0843-.486 1.9043-1.045 2.4473-1.4783.126-.1008.237-.1953.333-.2793-1.246-3.0251-2.5693-8.0537-2.5694-16.5401v-9.0107c0-9.4213-7.4545-17.0174-16.5986-17.0176h-.002c-4.5771 0-8.7226 1.8971-11.7295 4.9756-3.0072 3.079-4.8691 7.3338-4.8691 12.042v9.0107c-.0001 8.4867-1.3243 13.515-2.5703 16.5401.0969.085.2096.18.3379.2822.5459.4344 1.3693.9964 2.459 1.4834 2.1637.966 5.4183 1.657 9.7246.405l1.5234-.442-.9258 5.638h-5.6826c-5.0957 0-9.2666 4.237-9.2666 9.51V127H11c-6.07513 0-11-4.925-11-11V11C0 4.92487 4.92487 0 11 0h144ZM11 2c-4.97056 0-9 4.02944-9 9v105c0 4.971 4.02944 9 9 9h49v-8.555c0-6.335 5.0235-11.51 11.2666-11.51h3.9844l.1465-.899c-4.0812.851-7.3059.143-9.586-.876-1.2692-.567-2.2357-1.224-2.8896-1.745-.1545-.123-.2912-.238-.4102-.343l-1.0752-.943.544-1.3224c1.0592-2.5717 2.2594-6.918 2.4052-14.2675l.0147-1.5108v-9.0107c0-5.2444 2.0762-9.997 5.4385-13.4395l.3193-.3193C73.4933 57.0037 78.0157 55 82.999 55h.002c10.2918.0002 18.599 8.5354 18.599 19.0176v9.0107l.014 1.5108c.146 7.3495 1.345 11.696 2.405 14.2675l.543 1.3224-1.075.943c-.111.098-.247.214-.404.339-.652.52-1.614 1.174-2.876 1.74-2.2623 1.015-5.4604 1.727-9.5068.905l.1621.879h3.8711c6.2436 0 11.2666 5.175 11.2666 11.51V125h49c4.971 0 9-4.029 9-9V11c0-4.97056-4.029-9-9-9H11Z" />
</svg>
